<?xml version="1.0" standalone="no"?>
<!DOCTYPE svg PUBLIC "-//W3C//DTD SVG 20010904//EN"
 "http://www.w3.org/TR/2001/REC-SVG-20010904/DTD/svg10.dtd">
<svg version="1.0" xmlns="http://www.w3.org/2000/svg"
 width="32.000000pt" height="32.000000pt" viewBox="0 0 32.000000 32.000000"
 preserveAspectRatio="xMidYMid meet">

<g transform="translate(0.000000,32.000000) scale(0.100000,-0.100000)"
fill="#000000" stroke="none">
<path d="M90 298 c-33 -17 -51 -35 -67 -68 -29 -56 -29 -84 -1 -140 25 -48 89
-90 138 -90 49 0 113 42 138 90 28 56 28 84 0 140 -25 48 -89 90 -138 90 -14
0 -46 -10 -70 -22z m43 -75 c4 -3 34 -5 67 -4 38 1 60 -2 60 -8 0 -6 -9 -11
-19 -11 -17 0 -20 -8 -23 -52 -4 -68 -22 -69 -26 -2 -2 41 -7 53 -22 57 -11 3
-21 -1 -24 -9 -5 -12 -9 -12 -25 -2 -35 21 -34 1 0 -30 34 -30 34 -30 14 -52
-10 -11 -28 -20 -38 -18 -23 4 -45 34 -33 45 5 4 11 2 13 -4 4 -12 43 -19 43
-8 0 3 -14 18 -32 34 l-31 28 21 21 c22 22 43 28 55 15z"/>
</g>
</svg>

